# xmcd CD database file
#
# Track frame offsets:
#	150
#	12668
#	25318
#	43505
#	57059
#	79538
#	90709
#	108643
#	125365
#	141262
#	156504
#	177804
#	190476
#	214421
#
# Disc length: 3043 seconds
#
# Revision: 0
# Processed by: cddbd v1.5.2PL0 Copyright (c) Steve Scherf et al.
# Submitted via: CDex 1.70beta2
#
DISCID=c50be10e
DTITLE=Various Artist - Austin, Texas Through The Eyes Of Terri Herbert
DYEAR=2002
DGENRE=Country
TTITLE0=Dale Watson - Teresa Lynn
TTITLE1=Kelly Willis - The Circle
TTITLE2=Seth Walker - Goin' With The Grain
TTITLE3=Reckless Kelly - I Still Do
TTITLE4=George Devore - Standing Right By Me
TTITLE5=Andra Mitrovich - Beautiful
TTITLE6=Dale Watson - Forever Valentine
TTITLE7=Seth Walker - Without You
TTITLE8=Matt Powell - I've Broken Her Heart Again
TTITLE9=Dale Watson - Blue Eyes
TTITLE10=Matt Powell - Rooms
TTITLE11=Andra Mitrovich - Sometimes
TTITLE12=Willie Nelson - Farther Alone
TTITLE13=Dale Watson - I Sure Do Miss That Gal
EXTD=YEAR: 2002
EXTT0=
EXTT1=
EXTT2=
EXTT3=
EXTT4=
EXTT5=
EXTT6=
EXTT7=
EXTT8=
EXTT9=
EXTT10=
EXTT11=
EXTT12=
EXTT13=
PLAYORDER=
